{
  "asset": {
    "version": "2.0",
    "generator": "THREE.GLTFExporter r181"
  },
  "scenes": [
    {
      "name": "Scene",
      "nodes": [
        0,
        14
      ]
    }
  ],
  "scene": 0,
  "nodes": [
    {
      "name": "klagenfurt.gltf",
      "children": [
        1,
        11,
        12
      ]
    },
    {
      "name": "klagenfurtgltf",
      "extras": {
        "name": "klagenfurt.gltf"
      },
      "children": [
        2,
        9,
        10
      ]
    },
    {
      "name": "modelgltf",
      "extras": {
        "name": "model.gltf"
      },
      "children": [
        3
      ]
    },
    {
      "children": [
        4,
        5,
        6,
        7,
        8
      ]
    },
    {
      "name": "mesh_0",
      "extras": {
        "name": "mesh_0"
      },
      "mesh": 0
    },
    {
      "name": "mesh_0_1",
      "extras": {
        "name": "mesh_0_1"
      },
      "mesh": 1
    },
    {
      "name": "mesh_0_2",
      "extras": {
        "name": "mesh_0_2"
      },
      "mesh": 2
    },
    {
      "name": "mesh_0_4",
      "extras": {
        "name": "mesh_0_4"
      },
      "mesh": 3
    },
    {
      "name": "mesh_0_5",
      "extras": {
        "name": "mesh_0_5"
      },
      "mesh": 4
    },
    {
      "matrix": [
        1,
        0,
        0,
        0,
        0,
        1,
        0,
        0,
        0,
        0,
        1,
        0,
        -0.0042070193936000755,
        0.0886009988074595,
        0.06168070018033994,
        1
      ],
      "name": "AmbientLight",
      "extras": {
        "name": "AmbientLight"
      }
    },
    {
      "matrix": [
        1,
        0,
        0,
        0,
        0,
        1,
        0,
        0,
        0,
        0,
        1,
        0,
        0,
        10,
        0,
        1
      ],
      "name": "HemisphereLight",
      "extras": {
        "name": "HemisphereLight"
      }
    },
    {
      "matrix": [
        1,
        0,
        0,
        0,
        0,
        1,
        0,
        0,
        0,
        0,
        1,
        0,
        0,
        10,
        0,
        1
      ],
      "name": "HemisphereLight_1",
      "extras": {
        "name": "HemisphereLight"
      }
    },
    {
      "matrix": [
        1,
        0,
        0,
        0,
        0,
        1,
        0,
        0,
        0,
        0,
        1,
        0,
        5,
        10,
        7.5,
        1
      ],
      "name": "DirectionalLight",
      "extras": {
        "name": "DirectionalLight"
      },
      "children": [
        13
      ],
      "extensions": {
        "KHR_lights_punctual": {
          "light": 0
        }
      }
    },
    {
      "matrix": [
        1,
        0,
        0,
        0,
        0,
        1,
        0,
        0,
        0,
        0,
        1,
        0,
        0,
        0,
        -1,
        1
      ]
    },
    {
      "matrix": [
        1,
        0,
        0,
        0,
        0,
        1,
        0,
        0,
        0,
        0,
        1,
        0,
        0,
        10,
        0,
        1
      ],
      "name": "HemisphereLight"
    }
  ],
  "bufferViews": [
    {
      "buffer": 0,
      "byteOffset": 0,
      "byteLength": 1296,
      "target": 34962,
      "byteStride": 12
    },
    {
      "buffer": 0,
      "byteOffset": 1296,
      "byteLength": 1296,
      "target": 34962,
      "byteStride": 12
    },
    {
      "buffer": 0,
      "byteOffset": 2592,
      "byteLength": 720,
      "target": 34962,
      "byteStride": 12
    },
    {
      "buffer": 0,
      "byteOffset": 3312,
      "byteLength": 720,
      "target": 34962,
      "byteStride": 12
    },
    {
      "buffer": 0,
      "byteOffset": 4032,
      "byteLength": 12168,
      "target": 34962,
      "byteStride": 12
    },
    {
      "buffer": 0,
      "byteOffset": 16200,
      "byteLength": 12168,
      "target": 34962,
      "byteStride": 12
    },
    {
      "buffer": 0,
      "byteOffset": 28368,
      "byteLength": 183708,
      "target": 34962,
      "byteStride": 12
    },
    {
      "buffer": 0,
      "byteOffset": 212076,
      "byteLength": 183708,
      "target": 34962,
      "byteStride": 12
    },
    {
      "buffer": 0,
      "byteOffset": 395784,
      "byteLength": 49248,
      "target": 34962,
      "byteStride": 12
    },
    {
      "buffer": 0,
      "byteOffset": 445032,
      "byteLength": 49248,
      "target": 34962,
      "byteStride": 12
    }
  ],
  "buffers": [
    {
      "byteLength": 494280,
      "uri": "data:application/octet-stream;base64,"
    }
  ],
  "accessors": [
    {
      "bufferView": 0,
      "componentType": 5126,
      "count": 108,
      "max": [
        1,
        1,
        1
      ],
      "min": [
        -1,
        0,
        -0.9999008774757385
      ],
      "type": "VEC3"
    },
    {
      "bufferView": 1,
      "componentType": 5126,
      "count": 108,
      "max": [
        0.05518925189971924,
        0.00837666541337967,
        -0.24283310770988464
      ],
      "min": [
        -0.25239789485931396,
        0.00019999999494757503,
        -0.5536019802093506
      ],
      "type": "VEC3"
    },
    {
      "bufferView": 2,
      "componentType": 5126,
      "count": 60,
      "max": [
        1,
        1,
        1
      ],
      "min": [
        -1,
        0,
        -1
      ],
      "type": "VEC3"
    },
    {
      "bufferView": 3,
      "componentType": 5126,
      "count": 60,
      "max": [
        0.8394819498062134,
        0.016653332859277725,
        -0.026658743619918823
      ],
      "min": [
        -0.25239795446395874,
        0.00024999998277053237,
        -0.7255905866622925
      ],
      "type": "VEC3"
    },
    {
      "bufferView": 4,
      "componentType": 5126,
      "count": 1014,
      "max": [
        1,
        1,
        1
      ],
      "min": [
        -1,
        0,
        -1
      ],
      "type": "VEC3"
    },
    {
      "bufferView": 5,
      "componentType": 5126,
      "count": 1014,
      "max": [
        0.7987790107727051,
        0.021041663363575935,
        -0.03565323352813721
      ],
      "min": [
        -0.2034187912940979,
        0.01675333082675934,
        -0.7079365253448486
      ],
      "type": "VEC3"
    },
    {
      "bufferView": 6,
      "componentType": 5126,
      "count": 15309,
      "max": [
        1,
        1,
        1
      ],
      "min": [
        -1,
        0,
        -1
      ],
      "type": "VEC3"
    },
    {
      "bufferView": 7,
      "componentType": 5126,
      "count": 15309,
      "max": [
        0.8394819498062134,
        0.021341664716601372,
        -0.026658743619918823
      ],
      "min": [
        -0.25239789485931396,
        0.016903331503272057,
        -0.7255905270576477
      ],
      "type": "VEC3"
    },
    {
      "bufferView": 8,
      "componentType": 5126,
      "count": 4104,
      "max": [
        1,
        1,
        1
      ],
      "min": [
        -1,
        0,
        -1
      ],
      "type": "VEC3"
    },
    {
      "bufferView": 9,
      "componentType": 5126,
      "count": 4104,
      "max": [
        0.8394819498062134,
        0.021441662684082985,
        -0.026658743619918823
      ],
      "min": [
        -0.25239792466163635,
        0.016953330487012863,
        -0.7255905270576477
      ],
      "type": "VEC3"
    }
  ],
  "materials": [
    {
      "pbrMetallicRoughness": {
        "baseColorFactor": [
          0.3379371762275696,
          0.48925238847732544,
          0.6119402647018433,
          1
        ],
        "metallicFactor": 0.7089999914169312,
        "roughnessFactor": 0.07999999821186066
      },
      "doubleSided": true
    },
    {
      "pbrMetallicRoughness": {
        "baseColorFactor": [
          0.0746268630027771,
          0.07462611794471741,
          0.07462611794471741,
          1
        ],
        "metallicFactor": 0,
        "roughnessFactor": 0.16500000655651093
      },
      "doubleSided": true
    },
    {
      "pbrMetallicRoughness": {
        "baseColorFactor": [
          0.7574626803398132,
          0.9574550986289978,
          0.7574551105499268,
          1
        ],
        "metallicFactor": 0,
        "roughnessFactor": 0
      },
      "doubleSided": true
    },
    {
      "pbrMetallicRoughness": {
        "baseColorFactor": [
          0.40947315096855164,
          0.6343283653259277,
          0.46193936467170715,
          1
        ],
        "metallicFactor": 0.2849999964237213,
        "roughnessFactor": 0.14000000059604645
      },
      "doubleSided": true
    },
    {
      "pbrMetallicRoughness": {
        "baseColorFactor": [
          0.7276118993759155,
          0.5772755146026611,
          0.34751614928245544,
          1
        ],
        "metallicFactor": 0.9269999861717224,
        "roughnessFactor": 0.032999999821186066
      },
      "doubleSided": true
    }
  ],
  "meshes": [
    {
      "primitives": [
        {
          "mode": 4,
          "attributes": {
            "NORMAL": 0,
            "POSITION": 1
          },
          "material": 0
        }
      ]
    },
    {
      "primitives": [
        {
          "mode": 4,
          "attributes": {
            "NORMAL": 2,
            "POSITION": 3
          },
          "material": 1
        }
      ]
    },
    {
      "primitives": [
        {
          "mode": 4,
          "attributes": {
            "NORMAL": 4,
            "POSITION": 5
          },
          "material": 2
        }
      ]
    },
    {
      "primitives": [
        {
          "mode": 4,
          "attributes": {
            "NORMAL": 6,
            "POSITION": 7
          },
          "material": 3
        }
      ]
    },
    {
      "primitives": [
        {
          "mode": 4,
          "attributes": {
            "NORMAL": 8,
            "POSITION": 9
          },
          "material": 4
        }
      ]
    }
  ],
  "extensions": {
    "KHR_lights_punctual": {
      "lights": [
        {
          "name": "DirectionalLight",
          "color": [
            1,
            1,
            1
          ],
          "intensity": 1,
          "type": "directional"
        }
      ]
    }
  },
  "extensionsUsed": [
    "KHR_lights_punctual"
  ]
}